<?xml version="1.0" encoding="UTF-8"?>
<svg width="45px" height="45px" viewBox="0 0 45 45" version="1.1" xmlns="http://www.w3.org/2000/svg" xmlns:xlink="http://www.w3.org/1999/xlink">
    <!-- Generator: Sketch 50 (54983) - http://www.bohemiancoding.com/sketch -->
    <title>Jin &amp; Co. Logo</title>
    <desc>Created with Sketch.</desc>
    <defs></defs>
    <g id="Symbols" stroke="none" stroke-width="1" fill="none" fill-rule="evenodd">
        <g id="site-gfooter" transform="translate(-1122.000000, 0.000000)">
            <g id="Jin-&amp;-Co.-Logo" transform="translate(1122.000000, 0.000000)">
                <g>
                    <rect id="Rectangle-path" fill="#F07E65" x="0" y="0" width="45.0006078" height="44.0345716"></rect>
                    <path d="M8.51362851,13.847717 L9.28350377,13.847717 C9.50837879,13.847717 9.6595117,13.7965158 9.7369025,13.693646 C9.81410127,13.5907761 9.85289269,13.4453556 9.85289269,13.2571505 L9.85289269,7.33909527 L12.1623264,7.33909527 L12.1623264,13.7317546 C12.1623264,14.5278269 12.0127298,15.0884675 11.7139207,15.4136765 C11.4151115,15.7391193 10.9388604,15.9013731 10.2853594,15.9013731 L8.51382055,15.9013731 L8.51382055,13.847717 L8.51362851,13.847717 Z" id="Shape" fill="#000000"></path>
                    <polygon id="Shape" fill="#000000" points="14.5947917 7.33909527 17.027257 7.33909527 17.027257 15.9013731 14.5947917 15.9013731"></polygon>
                    <polygon id="Shape" fill="#000000" points="19.4597223 7.33909527 21.7081167 7.33909527 24.0718674 10.6380878 24.0718674 7.33909527 26.7571182 7.33909527 26.7571182 15.9013731 24.4958544 15.9013731 22.1447391 12.6152389 22.1447391 15.9013731 19.4597223 15.9013731"></polygon>
                    <path d="M10.5311266,18.3477382 L12.576828,18.3477382 L15.8110244,26.910016 L13.1262596,26.910016 L12.8452579,26.139916 L10.2629295,26.139916 L9.98146224,26.910016 L7.29739587,26.910016 L10.5311266,18.3477382 L10.5311266,18.3477382 Z M12.1623264,24.4636509 L11.5547023,23.2404684 L10.9460938,24.4636509 L12.1623264,24.4636509 L12.1623264,24.4636509 Z" id="Shape" fill="#000000"></path>
                    <polygon id="Shape" fill="#000000" points="17.027257 18.3477382 19.2756514 18.3477382 21.6394021 21.6469645 21.6394021 18.3477382 24.3246529 18.3477382 24.3246529 26.910016 22.0631551 26.910016 19.7120398 23.6236481 19.7120398 26.910016 17.027257 26.910016"></polygon>
                    <path d="M25.5408855,26.910016 L25.5408855,18.3477382 L27.8683254,18.3477382 C28.6568181,18.3477382 29.3596101,18.437513 29.9757847,18.6172966 C30.5921885,18.7970801 31.1121217,19.0668723 31.5360425,19.4262055 C31.9597341,19.7855388 32.2823723,20.2327766 32.5048734,20.7672176 C32.7273745,21.3025937 32.8382814,21.9209649 32.8382814,22.622331 C32.8382814,23.3241647 32.7273745,23.9423021 32.5048734,24.4772106 C32.2823723,25.0121192 31.9597341,25.459357 31.5360425,25.8189241 C31.1121217,26.1780235 30.5924176,26.4499198 29.9757847,26.6339115 C29.3596101,26.818137 28.6568181,26.910016 27.8683254,26.910016 L25.5408855,26.910016 L25.5408855,26.910016 Z M27.9733508,24.4636509 C28.7479584,24.4636509 29.3467625,24.3122957 29.7706097,24.0098183 C30.1941747,23.707108 30.4058161,23.2446597 30.4058161,22.6224736 C30.4058161,22.0005203 30.1941747,21.5404006 29.7706097,21.2418817 C29.3467625,20.9435956 28.7479584,20.7941033 27.9733508,20.7941033 L27.9733508,24.4636509 L27.9733508,24.4636509 Z" id="Shape" fill="#000000"></path>
                    <path d="M7.29739587,33.6377428 C7.29739587,32.9851899 7.41006297,32.3963551 7.6358373,31.8701243 C7.86095147,31.3438936 8.16726517,30.8931888 8.5538982,30.5180098 C8.94053123,30.1430537 9.39163977,29.8556542 9.90700378,29.6558113 C10.4223678,29.4561911 10.9705197,29.3563811 11.5501391,29.3563811 C12.0096097,29.3563811 12.4178079,29.4009391 12.7764942,29.4907236 C13.1347404,29.5807309 13.4428145,29.6823233 13.7009367,29.7966148 C13.9988883,29.9267243 14.2567904,30.0699785 14.4744228,30.224595 L13.2055975,32.4876991 C13.0766464,32.390117 12.9351524,32.296545 12.7828758,32.2065377 C12.6457828,32.1412602 12.4820634,32.0779877 12.2932579,32.0167204 C12.1037924,31.955453 11.8885806,31.9249308 11.6469624,31.9249308 C11.3969823,31.9249308 11.1674671,31.9699344 10.9581967,32.0594961 C10.7487063,32.148835 10.5656223,32.2713697 10.4082844,32.4264318 C10.2516067,32.5812711 10.1285971,32.7626224 10.0396957,32.9707085 C9.95101437,33.1785719 9.90678372,33.4009167 9.90678372,33.6372972 C9.90678372,33.8739005 9.95277479,34.0960225 10.0458572,34.3036631 C10.1380594,34.511972 10.2650299,34.6935461 10.4263287,34.8481626 C10.5874075,35.0030019 10.776653,35.1255366 10.9940653,35.2150983 C11.2114777,35.3048828 11.4493549,35.3496636 11.7072569,35.3496636 C11.9644988,35.3496636 12.1946742,35.317359 12.3960227,35.2516359 C12.596931,35.1865811 12.7661517,35.1132831 12.9032447,35.0315191 C13.0643235,34.9424029 13.2053774,34.8361319 13.3259664,34.7135973 L14.5947917,36.9769242 C14.3773794,37.1560476 14.1196974,37.3155655 13.8217457,37.4541411 C13.5638437,37.5682097 13.253569,37.6742579 12.8911418,37.7720629 C12.5289347,37.869645 12.1136947,37.9186589 11.6469624,37.9186589 C11.0187113,37.9186589 10.4386517,37.8146158 9.90678372,37.607198 C9.37535585,37.3991119 8.9158853,37.1074793 8.52925227,36.7320776 C8.14305934,36.3571215 7.84092665,35.9066395 7.62329428,35.3808543 C7.40588197,34.8550691 7.29739587,34.2738092 7.29739587,33.6377428 L7.29739587,33.6377428 Z" id="Shape" fill="#000000"></path>
                    <path d="M15.8110244,33.63752 C15.8110244,33.0502752 15.9224396,32.4960018 16.145713,31.9738084 C16.3685434,31.4520606 16.6724434,30.9971464 17.0578559,30.609957 C17.4428253,30.2227676 17.8946882,29.9168924 18.413666,29.6925542 C18.9326439,29.468216 19.4841824,29.3563811 20.0676171,29.3563811 C20.6519379,29.3563811 21.2028119,29.4679932 21.7217897,29.6925542 C22.2407675,29.9168924 22.6930734,30.2227676 23.0782644,30.609957 C23.4632339,30.9971464 23.7671338,31.4520606 23.9904072,31.9738084 C24.2132377,32.4960018 24.3246529,33.0502752 24.3246529,33.63752 C24.3246529,34.2247647 24.2132377,34.779261 23.9904072,35.3010088 C23.7671338,35.8232021 23.4632339,36.2776707 23.0782644,36.6648602 C22.6932949,37.0524952 22.240989,37.3579248 21.7217897,37.582263 C21.2030334,37.806824 20.6519379,37.9186589 20.0676171,37.9186589 C19.4841824,37.9186589 18.9326439,37.806824 18.413666,37.582263 C17.8949097,37.3579248 17.4430468,37.0524952 17.0578559,36.6648602 C16.6724434,36.2776707 16.3685434,35.8232021 16.145713,35.3010088 C15.9226611,34.779261 15.8110244,34.2247647 15.8110244,33.63752 L15.8110244,33.63752 Z M18.2434897,33.63752 C18.2434897,33.8910367 18.2914301,34.1290369 18.3868365,34.3515206 C18.4827174,34.5747204 18.6130111,34.7692742 18.7781922,34.9349433 C18.9428986,35.1008512 19.1363218,35.2321452 19.3575126,35.3281091 C19.5789406,35.4243118 19.8155578,35.4722938 20.0676013,35.4722938 C20.3196448,35.4722938 20.556262,35.4245505 20.7781647,35.3281091 C20.9998301,35.2321452 21.193016,35.1008512 21.3579597,34.9349433 C21.5231408,34.7692742 21.6531972,34.5744816 21.7488408,34.3515206 C21.8442471,34.1287982 21.8921876,33.8910367 21.8921876,33.63752 C21.8921876,33.3840032 21.8442471,33.1457643 21.7488408,32.9232807 C21.6531972,32.7000809 21.5229035,32.5060045 21.3579597,32.3400967 C21.1927787,32.1739501 20.9998301,32.0426561 20.7781647,31.9469308 C20.556262,31.8509669 20.3196448,31.8027462 20.0676013,31.8027462 C19.8155578,31.8027462 19.5789406,31.8509669 19.3575126,31.9469308 C19.1360845,32.0426561 18.9428986,32.1739501 18.7781922,32.3400967 C18.6130111,32.5060045 18.4824801,32.7003196 18.3868365,32.9232807 C18.2914301,33.1457643 18.2434897,33.3842419 18.2434897,33.63752 L18.2434897,33.63752 Z" id="Shape" fill="#000000"></path>
                </g>
            </g>
        </g>
    </g>
</svg>